<?xml version="1.0" encoding="utf-8"?>
<!-- Generator: Adobe Illustrator 17.0.0, SVG Export Plug-In . SVG Version: 6.00 Build 0)  -->
<!DOCTYPE svg PUBLIC "-//W3C//DTD SVG 1.1//EN" "http://www.w3.org/Graphics/SVG/1.1/DTD/svg11.dtd" [
	<!ENTITY ns_extend "http://ns.adobe.com/Extensibility/1.0/">
	<!ENTITY ns_ai "http://ns.adobe.com/AdobeIllustrator/10.0/">
	<!ENTITY ns_graphs "http://ns.adobe.com/Graphs/1.0/">
	<!ENTITY ns_vars "http://ns.adobe.com/Variables/1.0/">
	<!ENTITY ns_imrep "http://ns.adobe.com/ImageReplacement/1.0/">
	<!ENTITY ns_sfw "http://ns.adobe.com/SaveForWeb/1.0/">
	<!ENTITY ns_custom "http://ns.adobe.com/GenericCustomNamespace/1.0/">
	<!ENTITY ns_adobe_xpath "http://ns.adobe.com/XPath/1.0/">
]>
<svg version="1.1" id="Layer_1" xmlns:x="&ns_extend;" xmlns:i="&ns_ai;" xmlns:graph="&ns_graphs;"
	 xmlns="http://www.w3.org/2000/svg" xmlns:xlink="http://www.w3.org/1999/xlink" x="0px" y="0px" width="1344px" height="64px"
	 viewBox="0 346 1344 64" enable-background="new 0 346 1344 64" xml:space="preserve">
<metadata>
	<sfw  xmlns="&ns_sfw;">
		<slices></slices>
		<sliceSourceBounds  height="1774.667" width="4585.333" x="-987.833" y="-798.536" bottomLeftOrigin="true"></sliceSourceBounds>
	</sfw>
</metadata>
<g id="Layer_2" display="none">
	
		<linearGradient id="SVGID_1_" gradientUnits="userSpaceOnUse" x1="-929.155" y1="575.853" x2="2510.845" y2="575.853" gradientTransform="matrix(1.3333 0 0 -1.3333 250.8733 1435.5067)">
		<stop  offset="0" style="stop-color:#FBEFBF"/>
		<stop  offset="0.2058" style="stop-color:#FBEFBC"/>
		<stop  offset="0.3532" style="stop-color:#F9EEB3"/>
		<stop  offset="0.4821" style="stop-color:#F7EDA3"/>
		<stop  offset="0.5021" style="stop-color:#F6EDA0"/>
		<stop  offset="1" style="stop-color:#FAEEBC"/>
	</linearGradient>
	
		<rect x="-985.333" y="-217.631" display="inline" fill="#131316" stroke="url(#SVGID_1_)" stroke-width="4" stroke-linecap="round" stroke-miterlimit="10" width="4581.333" height="1770.667"/>
</g>
<g>
	<g opacity="0.9">
		
			<linearGradient id="SVGID_2_" gradientUnits="userSpaceOnUse" x1="-92.155" y1="793.1299" x2="-44.155" y2="793.1299" gradientTransform="matrix(1.3333 0 0 -1.3333 250.8733 1435.5067)">
			<stop  offset="0" style="stop-color:#FBEFBF"/>
			<stop  offset="0.2058" style="stop-color:#FBEFBC"/>
			<stop  offset="0.3532" style="stop-color:#F9EEB3"/>
			<stop  offset="0.4821" style="stop-color:#F7EDA3"/>
			<stop  offset="0.5021" style="stop-color:#F6EDA0"/>
			<stop  offset="1" style="stop-color:#CDB378"/>
		</linearGradient>
		<path fill="url(#SVGID_2_)" d="M189.539,380.461h-59.077c-1.359,0-2.461-1.101-2.461-2.461c0-1.36,1.103-2.461,2.461-2.461h59.077
			c1.36,0,2.461,1.103,2.461,2.461S190.897,380.461,189.539,380.461z"/>
	</g>
	<g opacity="0.8">
		
			<linearGradient id="SVGID_3_" gradientUnits="userSpaceOnUse" x1="3.845" y1="793.129" x2="51.845" y2="793.129" gradientTransform="matrix(1.3333 0 0 -1.3333 250.8733 1435.5067)">
			<stop  offset="0" style="stop-color:#FBEFBF"/>
			<stop  offset="0.2058" style="stop-color:#FBEFBC"/>
			<stop  offset="0.3532" style="stop-color:#F9EEB3"/>
			<stop  offset="0.4821" style="stop-color:#F7EDA3"/>
			<stop  offset="0.5021" style="stop-color:#F6EDA0"/>
			<stop  offset="1" style="stop-color:#CDB378"/>
		</linearGradient>
		<path fill="url(#SVGID_3_)" d="M317.539,380.463h-59.077c-1.36,0-2.461-1.103-2.461-2.461s1.103-2.461,2.461-2.461h59.077
			c1.36,0,2.461,1.103,2.461,2.461S318.897,380.463,317.539,380.463z"/>
	</g>
	<g opacity="0.4">
		
			<linearGradient id="SVGID_4_" gradientUnits="userSpaceOnUse" x1="387.845" y1="793.1299" x2="435.845" y2="793.1299" gradientTransform="matrix(1.3333 0 0 -1.3333 250.8733 1435.5067)">
			<stop  offset="0" style="stop-color:#FBEFBF"/>
			<stop  offset="0.2058" style="stop-color:#FBEFBC"/>
			<stop  offset="0.3532" style="stop-color:#F9EEB3"/>
			<stop  offset="0.4821" style="stop-color:#F7EDA3"/>
			<stop  offset="0.5021" style="stop-color:#F6EDA0"/>
			<stop  offset="1" style="stop-color:#CDB378"/>
		</linearGradient>
		<path fill="url(#SVGID_4_)" d="M829.539,380.461h-59.077c-1.36,0-2.461-1.103-2.461-2.461s1.103-2.461,2.461-2.461h59.077
			c1.36,0,2.461,1.103,2.461,2.461S830.897,380.461,829.539,380.461z"/>
	</g>
	<g opacity="0.3">
		
			<linearGradient id="SVGID_5_" gradientUnits="userSpaceOnUse" x1="483.845" y1="793.128" x2="531.845" y2="793.128" gradientTransform="matrix(1.3333 0 0 -1.3333 250.8733 1435.5067)">
			<stop  offset="0" style="stop-color:#FBEFBF"/>
			<stop  offset="0.2058" style="stop-color:#FBEFBC"/>
			<stop  offset="0.3532" style="stop-color:#F9EEB3"/>
			<stop  offset="0.4821" style="stop-color:#F7EDA3"/>
			<stop  offset="0.5021" style="stop-color:#F6EDA0"/>
			<stop  offset="1" style="stop-color:#CDB378"/>
		</linearGradient>
		<path fill="url(#SVGID_5_)" d="M957.539,380.464h-59.077c-1.36,0-2.461-1.103-2.461-2.461c0-1.359,1.103-2.461,2.461-2.461h59.077
			c1.36,0,2.461,1.103,2.461,2.461C960,379.361,958.897,380.464,957.539,380.464z"/>
	</g>
	<g opacity="0.2">
		
			<linearGradient id="SVGID_6_" gradientUnits="userSpaceOnUse" x1="579.845" y1="793.129" x2="627.845" y2="793.129" gradientTransform="matrix(1.3333 0 0 -1.3333 250.8733 1435.5067)">
			<stop  offset="0" style="stop-color:#FBEFBF"/>
			<stop  offset="0.2058" style="stop-color:#FBEFBC"/>
			<stop  offset="0.3532" style="stop-color:#F9EEB3"/>
			<stop  offset="0.4821" style="stop-color:#F7EDA3"/>
			<stop  offset="0.5021" style="stop-color:#F6EDA0"/>
			<stop  offset="1" style="stop-color:#CDB378"/>
		</linearGradient>
		<path fill="url(#SVGID_6_)" d="M1085.539,380.463h-59.077c-1.36,0-2.461-1.103-2.461-2.461s1.103-2.461,2.461-2.461h59.077
			c1.36,0,2.461,1.103,2.461,2.461S1086.897,380.463,1085.539,380.463z"/>
	</g>
	<g opacity="0.1">
		
			<linearGradient id="SVGID_7_" gradientUnits="userSpaceOnUse" x1="675.845" y1="793.127" x2="723.845" y2="793.127" gradientTransform="matrix(1.3333 0 0 -1.3333 250.8733 1435.5067)">
			<stop  offset="0" style="stop-color:#FBEFBF"/>
			<stop  offset="0.2058" style="stop-color:#FBEFBC"/>
			<stop  offset="0.3532" style="stop-color:#F9EEB3"/>
			<stop  offset="0.4821" style="stop-color:#F7EDA3"/>
			<stop  offset="0.5021" style="stop-color:#F6EDA0"/>
			<stop  offset="1" style="stop-color:#CDB378"/>
		</linearGradient>
		<path fill="url(#SVGID_7_)" d="M1213.539,380.465h-59.077c-1.36,0-2.461-1.103-2.461-2.461s1.103-2.461,2.461-2.461h59.077
			c1.36,0,2.461,1.103,2.461,2.461S1214.897,380.465,1213.539,380.465z"/>
	</g>
	<g opacity="0">
		
			<linearGradient id="SVGID_8_" gradientUnits="userSpaceOnUse" x1="771.845" y1="793.1299" x2="819.845" y2="793.1299" gradientTransform="matrix(1.3333 0 0 -1.3333 250.8733 1435.5067)">
			<stop  offset="0" style="stop-color:#FBEFBF"/>
			<stop  offset="0.2058" style="stop-color:#FBEFBC"/>
			<stop  offset="0.3532" style="stop-color:#F9EEB3"/>
			<stop  offset="0.4821" style="stop-color:#F7EDA3"/>
			<stop  offset="0.5021" style="stop-color:#F6EDA0"/>
			<stop  offset="1" style="stop-color:#CDB378"/>
		</linearGradient>
		<path fill="url(#SVGID_8_)" d="M1341.539,380.461h-59.077c-1.36,0-2.461-1.103-2.461-2.461s1.103-2.461,2.461-2.461h59.077
			c1.36,0,2.461,1.103,2.461,2.461S1342.897,380.461,1341.539,380.461z"/>
	</g>
	<g opacity="0.7">
		
			<linearGradient id="SVGID_9_" gradientUnits="userSpaceOnUse" x1="99.845" y1="793.128" x2="147.845" y2="793.128" gradientTransform="matrix(1.3333 0 0 -1.3333 250.8733 1435.5067)">
			<stop  offset="0" style="stop-color:#FBEFBF"/>
			<stop  offset="0.2058" style="stop-color:#FBEFBC"/>
			<stop  offset="0.3532" style="stop-color:#F9EEB3"/>
			<stop  offset="0.4821" style="stop-color:#F7EDA3"/>
			<stop  offset="0.5021" style="stop-color:#F6EDA0"/>
			<stop  offset="1" style="stop-color:#CDB378"/>
		</linearGradient>
		<path fill="url(#SVGID_9_)" d="M445.539,380.464h-59.077c-1.36,0-2.461-1.103-2.461-2.461c0-1.359,1.103-2.461,2.461-2.461h59.077
			c1.36,0,2.461,1.103,2.461,2.461C448,379.361,446.897,380.464,445.539,380.464z"/>
	</g>
	<g opacity="0.6">
		
			<linearGradient id="SVGID_10_" gradientUnits="userSpaceOnUse" x1="195.845" y1="793.129" x2="243.845" y2="793.129" gradientTransform="matrix(1.3333 0 0 -1.3333 250.8733 1435.5067)">
			<stop  offset="0" style="stop-color:#FBEFBF"/>
			<stop  offset="0.2058" style="stop-color:#FBEFBC"/>
			<stop  offset="0.3532" style="stop-color:#F9EEB3"/>
			<stop  offset="0.4821" style="stop-color:#F7EDA3"/>
			<stop  offset="0.5021" style="stop-color:#F6EDA0"/>
			<stop  offset="1" style="stop-color:#CDB378"/>
		</linearGradient>
		<path fill="url(#SVGID_10_)" d="M573.539,380.463h-59.077c-1.36,0-2.461-1.103-2.461-2.461s1.103-2.461,2.461-2.461h59.077
			c1.36,0,2.461,1.103,2.461,2.461S574.897,380.463,573.539,380.463z"/>
	</g>
	<g opacity="0.5">
		
			<linearGradient id="SVGID_11_" gradientUnits="userSpaceOnUse" x1="291.845" y1="793.128" x2="339.845" y2="793.128" gradientTransform="matrix(1.3333 0 0 -1.3333 250.8733 1435.5067)">
			<stop  offset="0" style="stop-color:#FBEFBF"/>
			<stop  offset="0.2058" style="stop-color:#FBEFBC"/>
			<stop  offset="0.3532" style="stop-color:#F9EEB3"/>
			<stop  offset="0.4821" style="stop-color:#F7EDA3"/>
			<stop  offset="0.5021" style="stop-color:#F6EDA0"/>
			<stop  offset="1" style="stop-color:#CDB378"/>
		</linearGradient>
		<path fill="url(#SVGID_11_)" d="M701.539,380.464h-59.077c-1.36,0-2.461-1.103-2.461-2.461c0-1.359,1.103-2.461,2.461-2.461
			h59.077c1.36,0,2.461,1.103,2.461,2.461C704,379.361,702.897,380.464,701.539,380.464z"/>
	</g>
	
		<linearGradient id="SVGID_12_" gradientUnits="userSpaceOnUse" x1="778.3333" y1="793.1298" x2="813.3568" y2="793.1298" gradientTransform="matrix(1.3333 0 0 -1.3333 250.8733 1435.5067)">
		<stop  offset="0" style="stop-color:#FBEFBF"/>
		<stop  offset="0.2058" style="stop-color:#FBEFBC"/>
		<stop  offset="0.3532" style="stop-color:#F9EEB3"/>
		<stop  offset="0.4821" style="stop-color:#F7EDA3"/>
		<stop  offset="0.5021" style="stop-color:#F6EDA0"/>
		<stop  offset="1" style="stop-color:#CDB378"/>
	</linearGradient>
	<path fill="url(#SVGID_12_)" d="M1315.481,378l19.147-19.147c0.961-0.961,0.961-2.519,0-3.481c-0.961-0.961-2.519-0.961-3.48,0
		L1312,374.519l-19.147-19.147c-0.961-0.961-2.519-0.961-3.481,0c-0.961,0.961-0.961,2.519,0,3.481L1308.519,378l-19.147,19.147
		c-0.961,0.961-0.961,2.519,0,3.481c0.481,0.481,1.111,0.721,1.74,0.721c0.629,0,1.26-0.24,1.74-0.721L1312,381.481l19.147,19.147
		c0.48,0.481,1.111,0.721,1.74,0.721c0.629,0,1.26-0.24,1.74-0.721c0.961-0.961,0.961-2.519,0-3.481L1315.481,378z"/>
	
		<linearGradient id="SVGID_13_" gradientUnits="userSpaceOnUse" x1="681.6849" y1="793.1281" x2="718.0059" y2="793.1281" gradientTransform="matrix(1.3333 0 0 -1.3333 250.8733 1435.5067)">
		<stop  offset="0" style="stop-color:#FBEFBF"/>
		<stop  offset="0.2058" style="stop-color:#FBEFBC"/>
		<stop  offset="0.3532" style="stop-color:#F9EEB3"/>
		<stop  offset="0.4821" style="stop-color:#F7EDA3"/>
		<stop  offset="0.5021" style="stop-color:#F6EDA0"/>
		<stop  offset="1" style="stop-color:#CDB378"/>
	</linearGradient>
	<path fill="url(#SVGID_13_)" d="M1191.183,378.003l16.179-13.981c1.029-0.889,1.141-2.444,0.253-3.472
		c-0.889-1.031-2.445-1.141-3.472-0.253l-16.725,14.453l-23.56-20.361c-1.031-0.888-2.584-0.776-3.472,0.253
		s-0.775,2.583,0.253,3.472l23.015,19.889l-23.015,19.889c-1.029,0.889-1.141,2.444-0.253,3.472
		c0.487,0.564,1.175,0.852,1.864,0.852c0.569,0,1.143-0.197,1.608-0.599l23.561-20.361l16.725,14.453
		c0.465,0.401,1.039,0.599,1.608,0.599c0.689,0,1.377-0.288,1.864-0.852c0.888-1.029,0.775-2.583-0.253-3.472L1191.183,378.003z"/>
	
		<linearGradient id="SVGID_14_" gradientUnits="userSpaceOnUse" x1="585.0364" y1="793.1293" x2="622.6537" y2="793.1293" gradientTransform="matrix(1.3333 0 0 -1.3333 250.8733 1435.5067)">
		<stop  offset="0" style="stop-color:#FBEFBF"/>
		<stop  offset="0.2058" style="stop-color:#FBEFBC"/>
		<stop  offset="0.3532" style="stop-color:#F9EEB3"/>
		<stop  offset="0.4821" style="stop-color:#F7EDA3"/>
		<stop  offset="0.5021" style="stop-color:#F6EDA0"/>
		<stop  offset="1" style="stop-color:#CDB378"/>
	</linearGradient>
	<path fill="url(#SVGID_14_)" d="M1080.08,386.823L1068.139,378l11.941-8.821c1.093-0.808,1.324-2.348,0.516-3.443
		c-0.805-1.093-2.348-1.327-3.443-0.517l-13.157,9.721l-29.149-21.536c-1.095-0.812-2.636-0.576-3.443,0.517
		c-0.808,1.093-0.577,2.635,0.517,3.443l27.933,20.639l-27.933,20.637c-1.093,0.808-1.324,2.348-0.517,3.443
		c0.481,0.653,1.227,0.999,1.981,0.999c0.507,0,1.02-0.156,1.46-0.483l29.151-21.536l13.157,9.721
		c0.44,0.325,0.953,0.481,1.46,0.481c0.755,0,1.5-0.345,1.981-0.999C1081.404,389.172,1081.173,387.631,1080.08,386.823z"/>
	
		<linearGradient id="SVGID_15_" gradientUnits="userSpaceOnUse" x1="488.3872" y1="793.1287" x2="527.303" y2="793.1287" gradientTransform="matrix(1.3333 0 0 -1.3333 250.8733 1435.5067)">
		<stop  offset="0" style="stop-color:#FBEFBF"/>
		<stop  offset="0.2058" style="stop-color:#FBEFBC"/>
		<stop  offset="0.3532" style="stop-color:#F9EEB3"/>
		<stop  offset="0.4821" style="stop-color:#F7EDA3"/>
		<stop  offset="0.5021" style="stop-color:#F6EDA0"/>
		<stop  offset="1" style="stop-color:#CDB378"/>
	</linearGradient>
	<path fill="url(#SVGID_15_)" d="M952.783,381.671l-5.892-3.669l5.892-3.669c1.155-0.719,1.507-2.237,0.789-3.391
		c-0.72-1.155-2.239-1.507-3.391-0.789l-7.949,4.949l-36.413-22.672c-1.151-0.716-2.669-0.367-3.391,0.789
		c-0.717,1.153-0.365,2.672,0.789,3.391l34.357,21.392l-34.357,21.392c-1.155,0.719-1.507,2.237-0.789,3.391
		c0.468,0.751,1.271,1.161,2.092,1.161c0.444,0,0.895-0.12,1.299-0.372l36.415-22.673l7.949,4.949
		c0.404,0.251,0.853,0.372,1.299,0.372c0.823,0,1.625-0.411,2.092-1.161C954.289,383.908,953.937,382.389,952.783,381.671z"/>
	
		<linearGradient id="SVGID_16_" gradientUnits="userSpaceOnUse" x1="391.7378" y1="793.1302" x2="431.9509" y2="793.1302" gradientTransform="matrix(1.3333 0 0 -1.3333 250.8733 1435.5067)">
		<stop  offset="0" style="stop-color:#FBEFBF"/>
		<stop  offset="0.2058" style="stop-color:#FBEFBC"/>
		<stop  offset="0.3532" style="stop-color:#F9EEB3"/>
		<stop  offset="0.4821" style="stop-color:#F7EDA3"/>
		<stop  offset="0.5021" style="stop-color:#F6EDA0"/>
		<stop  offset="1" style="stop-color:#CDB378"/>
	</linearGradient>
	<path fill="url(#SVGID_16_)" d="M826.536,376.156c-0.621-1.208-2.104-1.685-3.315-1.063l-0.267,0.137l-46.176-23.767
		c-1.211-0.621-2.692-0.145-3.315,1.063s-0.147,2.692,1.063,3.315L817.576,378l-43.049,22.159c-1.209,0.623-1.685,2.107-1.063,3.315
		c0.436,0.848,1.299,1.335,2.191,1.335c0.379,0,0.764-0.088,1.124-0.273l46.176-23.768l0.267,0.137
		c0.361,0.185,0.745,0.273,1.124,0.273c0.893,0,1.755-0.487,2.191-1.336c0.305-0.593,0.344-1.252,0.163-1.843
		C826.88,377.408,826.841,376.749,826.536,376.156z"/>
	<linearGradient id="SVGID_17_" gradientUnits="userSpaceOnUse" x1="644.1908" y1="378.0021" x2="699.54" y2="378.0021">
		<stop  offset="0" style="stop-color:#FBEFBF"/>
		<stop  offset="0.2058" style="stop-color:#FBEFBC"/>
		<stop  offset="0.3532" style="stop-color:#F9EEB3"/>
		<stop  offset="0.4821" style="stop-color:#F7EDA3"/>
		<stop  offset="0.5021" style="stop-color:#F6EDA0"/>
		<stop  offset="1" style="stop-color:#CDB378"/>
	</linearGradient>
	<path fill="url(#SVGID_17_)" d="M697.212,376.139c-0.313,0-0.632-0.061-0.941-0.189l-50.425-20.887
		c-1.256-0.52-1.852-1.96-1.332-3.216c0.52-1.255,1.956-1.852,3.216-1.332l50.425,20.887c1.256,0.52,1.852,1.96,1.332,3.216
		C699.093,375.565,698.177,376.139,697.212,376.139z M646.788,405.677c-0.967,0-1.883-0.573-2.275-1.52
		c-0.52-1.256,0.076-2.696,1.332-3.216l50.425-20.887c1.261-0.521,2.696,0.077,3.216,1.332c0.52,1.256-0.076,2.696-1.332,3.216
		l-50.425,20.887C647.42,405.616,647.103,405.677,646.788,405.677z"/>
	<linearGradient id="SVGID_18_" gradientUnits="userSpaceOnUse" x1="515.6091" y1="378.0002" x2="572.6892" y2="378.0002">
		<stop  offset="0" style="stop-color:#FBEFBF"/>
		<stop  offset="0.2058" style="stop-color:#FBEFBC"/>
		<stop  offset="0.3532" style="stop-color:#F9EEB3"/>
		<stop  offset="0.4821" style="stop-color:#F7EDA3"/>
		<stop  offset="0.5021" style="stop-color:#F6EDA0"/>
		<stop  offset="1" style="stop-color:#CDB378"/>
	</linearGradient>
	<path fill="url(#SVGID_18_)" d="M570.079,371.095c-0.249,0-0.501-0.039-0.751-0.119l-52.157-16.709
		c-1.295-0.415-2.007-1.8-1.592-3.095c0.415-1.293,1.797-2.011,3.095-1.592l52.156,16.709c1.295,0.415,2.007,1.8,1.592,3.095
		C572.088,370.428,571.12,371.095,570.079,371.095z M517.921,406.54c-1.043,0-2.009-0.667-2.344-1.712
		c-0.415-1.295,0.299-2.68,1.592-3.095l52.156-16.709c1.301-0.421,2.681,0.299,3.095,1.592c0.415,1.295-0.299,2.68-1.592,3.095
		l-52.156,16.709C518.423,406.501,518.169,406.54,517.921,406.54z"/>
	<linearGradient id="SVGID_19_" gradientUnits="userSpaceOnUse" x1="386.5941" y1="378.0017" x2="445.4059" y2="378.0017">
		<stop  offset="0" style="stop-color:#FBEFBF"/>
		<stop  offset="0.2058" style="stop-color:#FBEFBC"/>
		<stop  offset="0.3532" style="stop-color:#F9EEB3"/>
		<stop  offset="0.4821" style="stop-color:#F7EDA3"/>
		<stop  offset="0.5021" style="stop-color:#F6EDA0"/>
		<stop  offset="1" style="stop-color:#CDB378"/>
	</linearGradient>
	<path fill="url(#SVGID_19_)" d="M442.945,366.053c-0.185,0-0.372-0.02-0.56-0.064l-53.887-12.532
		c-1.324-0.308-2.148-1.631-1.84-2.956c0.308-1.325,1.631-2.148,2.956-1.84l53.887,12.532c1.324,0.308,2.148,1.631,1.84,2.956
		C445.077,365.287,444.065,366.053,442.945,366.053z M389.055,407.407c-1.119,0-2.131-0.767-2.396-1.904
		c-0.308-1.324,0.516-2.648,1.84-2.956l53.887-12.531c1.32-0.304,2.648,0.516,2.956,1.84c0.308,1.324-0.516,2.648-1.84,2.956
		l-53.887,12.531C389.427,407.385,389.239,407.407,389.055,407.407z"/>
	<linearGradient id="SVGID_20_" gradientUnits="userSpaceOnUse" x1="257.7308" y1="378.0008" x2="318.2692" y2="378.0008">
		<stop  offset="0" style="stop-color:#FBEFBF"/>
		<stop  offset="0.2058" style="stop-color:#FBEFBC"/>
		<stop  offset="0.3532" style="stop-color:#F9EEB3"/>
		<stop  offset="0.4821" style="stop-color:#F7EDA3"/>
		<stop  offset="0.5021" style="stop-color:#F6EDA0"/>
		<stop  offset="1" style="stop-color:#CDB378"/>
	</linearGradient>
	<path fill="url(#SVGID_20_)" d="M315.811,361.008c-0.123,0-0.245-0.008-0.369-0.028l-55.615-8.353
		c-1.345-0.201-2.271-1.456-2.068-2.799c0.201-1.347,1.467-2.276,2.799-2.068l55.616,8.355c1.345,0.201,2.271,1.456,2.068,2.799
		C318.059,360.133,317.008,361.008,315.811,361.008z M260.189,408.271c-1.197,0-2.248-0.875-2.431-2.096
		c-0.201-1.344,0.724-2.597,2.068-2.799l55.616-8.355c1.332-0.207,2.597,0.723,2.799,2.068c0.201,1.344-0.724,2.597-2.068,2.799
		l-55.616,8.355C260.433,408.263,260.311,408.271,260.189,408.271z"/>
	<linearGradient id="SVGID_21_" gradientUnits="userSpaceOnUse" x1="128.8641" y1="378.0002" x2="191.1359" y2="378.0002">
		<stop  offset="0" style="stop-color:#FBEFBF"/>
		<stop  offset="0.2058" style="stop-color:#FBEFBC"/>
		<stop  offset="0.3532" style="stop-color:#F9EEB3"/>
		<stop  offset="0.4821" style="stop-color:#F7EDA3"/>
		<stop  offset="0.5021" style="stop-color:#F6EDA0"/>
		<stop  offset="1" style="stop-color:#CDB378"/>
	</linearGradient>
	<path fill="url(#SVGID_21_)" d="M188.676,355.965c-0.06,0-0.12-0.003-0.181-0.007l-57.347-4.177
		c-1.356-0.1-2.375-1.279-2.276-2.635s1.263-2.36,2.635-2.276l57.347,4.177c1.356,0.1,2.375,1.279,2.276,2.635
		C191.033,354.977,189.953,355.965,188.676,355.965z M131.324,409.135c-1.279,0-2.359-0.988-2.453-2.283
		c-0.099-1.356,0.92-2.535,2.276-2.635l57.347-4.177c1.372-0.079,2.535,0.921,2.635,2.276c0.099,1.356-0.921,2.535-2.276,2.635
		l-57.347,4.177C131.445,409.132,131.384,409.135,131.324,409.135z"/>
	<linearGradient id="SVGID_22_" gradientUnits="userSpaceOnUse" x1="-2.384186e-007" y1="378" x2="64" y2="378">
		<stop  offset="0" style="stop-color:#FBEFBF"/>
		<stop  offset="0.2058" style="stop-color:#FBEFBC"/>
		<stop  offset="0.3532" style="stop-color:#F9EEB3"/>
		<stop  offset="0.4821" style="stop-color:#F7EDA3"/>
		<stop  offset="0.5021" style="stop-color:#F6EDA0"/>
		<stop  offset="1" style="stop-color:#CDB378"/>
	</linearGradient>
	<path fill="url(#SVGID_22_)" d="M61.539,380.461H2.461C1.103,380.461,0,379.36,0,378c0-1.36,1.103-2.461,2.461-2.461h59.077
		c1.359,0,2.461,1.101,2.461,2.461C64,379.36,62.897,380.461,61.539,380.461z M61.539,350.923H2.461
		c-1.359,0-2.461-1.101-2.461-2.461C0,347.101,1.103,346,2.461,346h59.077c1.359,0,2.461,1.103,2.461,2.461
		S62.897,350.923,61.539,350.923z M61.539,410H2.461C1.103,410,0,408.897,0,407.539s1.103-2.461,2.461-2.461h59.077
		c1.36,0,2.461,1.103,2.461,2.461S62.897,410,61.539,410z"/>
</g>
</svg>
