<svg xmlns:x="http://ns.adobe.com/Extensibility/1.0/" xmlns:i="http://ns.adobe.com/AdobeIllustrator/10.0/" xmlns:graph="http://ns.adobe.com/Graphs/1.0/" xmlns="http://www.w3.org/2000/svg" xmlns:xlink="http://www.w3.org/1999/xlink" version="1.1" x="0px" y="0px" width="73.549px" height="75.222px" viewBox="0 0 73.549 75.222" enable-background="new 0 0 73.549 75.222" xml:space="preserve">
<metadata>
	<sfw xmlns="http://ns.adobe.com/SaveForWeb/1.0/">
		<slices/>
		<sliceSourceBounds width="4747.2" height="2213.1" y="-1116" x="-36" bottomLeftOrigin="true"/>
		<optimizationSettings>
			<targetSettings fileFormat="PNG24Format" targetSettingsID="0">
				<PNG24Format transparency="true" noMatteColor="false" interlaced="false" matteColor="#FFFFFF" filtered="false">
					</PNG24Format>
			</targetSettings>
		</optimizationSettings>
	</sfw>
</metadata>
<g id="Background-1">
</g>
<g id="Layer_1">
	<linearGradient id="SVGID_1_" gradientUnits="userSpaceOnUse" x1="5.5" y1="69.7" x2="69.7" y2="5.5">
		<stop offset="0" style="stop-color:#FBEFBF"/>
		<stop offset="0.2058" style="stop-color:#FBEFBC"/>
		<stop offset="0.3532" style="stop-color:#F9EEB3"/>
		<stop offset="0.4821" style="stop-color:#F7EDA3"/>
		<stop offset="0.5021" style="stop-color:#F6EDA0"/>
		<stop offset="1" style="stop-color:#CDB378"/>
	</linearGradient>
	<path fill="url(#SVGID_1_)" d="M73.544 11.032C70.587 4.5 64 0 56.4 0H18.805C8.419 0 0 8.4 0 18.805v37.611 c0 10.4 8.4 18.8 18.8 18.805h37.611c7.618 0 14.178-4.53 17.133-11.043c-1.332-4.35-3.431-8.364-6.14-11.886v4.103 c0 6.086-4.934 11.02-11.02 11.02H18.779c-6.086 0-11.02-4.934-11.02-11.02V18.785c0-6.086 4.934-11.02 11.02-11.02h37.611 c6.086 0 11 4.9 11 11.02v4.116C70.115 19.4 72.2 15.4 73.5 11.032z"/>
</g>
</svg>
