<?xml version="1.0" encoding="utf-8"?>
<!-- Generator: Adobe Illustrator 17.0.0, SVG Export Plug-In . SVG Version: 6.00 Build 0)  -->
<!DOCTYPE svg PUBLIC "-//W3C//DTD SVG 1.1//EN" "http://www.w3.org/Graphics/SVG/1.1/DTD/svg11.dtd" [
	<!ENTITY ns_extend "http://ns.adobe.com/Extensibility/1.0/">
	<!ENTITY ns_ai "http://ns.adobe.com/AdobeIllustrator/10.0/">
	<!ENTITY ns_graphs "http://ns.adobe.com/Graphs/1.0/">
	<!ENTITY ns_vars "http://ns.adobe.com/Variables/1.0/">
	<!ENTITY ns_imrep "http://ns.adobe.com/ImageReplacement/1.0/">
	<!ENTITY ns_sfw "http://ns.adobe.com/SaveForWeb/1.0/">
	<!ENTITY ns_custom "http://ns.adobe.com/GenericCustomNamespace/1.0/">
	<!ENTITY ns_adobe_xpath "http://ns.adobe.com/XPath/1.0/">
]>
<svg version="1.1" id="Layer_1" xmlns:x="&ns_extend;" xmlns:i="&ns_ai;" xmlns:graph="&ns_graphs;"
	 xmlns="http://www.w3.org/2000/svg" xmlns:xlink="http://www.w3.org/1999/xlink" x="0px" y="0px" width="144px" height="190.417px"
	 viewBox="0 0 144 190.417" enable-background="new 0 0 144 190.417" xml:space="preserve">
<metadata>
	<sfw  xmlns="&ns_sfw;">
		<slices></slices>
		<sliceSourceBounds  height="190.417" width="340.897" x="1444" y="-190.417" bottomLeftOrigin="true"></sliceSourceBounds>
	</sfw>
</metadata>
<linearGradient id="SVGID_1_" gradientUnits="userSpaceOnUse" x1="-5.5063" y1="177.5057" x2="153.0096" y2="18.9899">
	<stop  offset="0" style="stop-color:#FBEFBF"/>
	<stop  offset="0.2058" style="stop-color:#FBEFBC"/>
	<stop  offset="0.3532" style="stop-color:#F9EEB3"/>
	<stop  offset="0.4821" style="stop-color:#F7EDA3"/>
	<stop  offset="0.5021" style="stop-color:#F6EDA0"/>
	<stop  offset="1" style="stop-color:#CDB378"/>
</linearGradient>
<path fill="url(#SVGID_1_)" d="M111.259,53.569v-5.158c0-7.626-6.323-13.808-14.122-13.808H48.938
	c-7.8,0-14.122,6.182-14.122,13.808v47.127c0,7.626,6.323,13.808,14.122,13.808h48.199c7.799,0,14.122-6.182,14.122-13.808v-5.141
	c3.472,4.412,6.162,9.442,7.868,14.893c-3.788,8.161-12.194,13.837-21.956,13.837H48.972c-13.31,0-24.099-10.55-24.099-23.564
	V48.436c0-13.014,10.79-23.564,24.099-23.564h48.199c9.757,0,18.159,5.67,21.95,13.823
	C117.414,44.139,114.726,49.162,111.259,53.569z M144,126.982V17.018C144,7.634,136.365,0,126.982,0H17.018
	C7.634,0,0,7.634,0,17.018v109.964C0,136.366,7.634,144,17.018,144h109.964C136.365,144,144,136.366,144,126.982z M126.982,2.618
	c7.94,0,14.4,6.46,14.4,14.4v109.964c0,7.94-6.46,14.4-14.4,14.4H17.018c-7.94,0-14.4-6.46-14.4-14.4V17.018
	c0-7.94,6.46-14.4,14.4-14.4H126.982z M1.021,178.99c0-6.791,4.901-11.426,11.029-11.426c3.113,0,5.729,1.224,7.683,3.478
	l-0.828,0.728c-1.556-1.954-4.106-3.212-6.855-3.212c-5.531,0-9.87,4.206-9.87,10.433c0,6.16,4.339,10.433,9.87,10.433
	c2.749,0,5.299-1.259,6.855-3.213l0.862,0.696c-2.086,2.352-4.603,3.511-7.717,3.511C5.922,190.417,1.021,185.779,1.021,178.99z
	 M30.512,190.019v-22.091h1.06v21.097h11.096v0.994H30.512z M52.683,181.64v-13.712h1.06v13.712c0,4.901,2.516,7.783,7.153,7.783
	s7.153-2.882,7.153-7.783v-13.712h1.06v13.712c0,5.464-2.848,8.777-8.213,8.777S52.683,187.071,52.683,181.64z M81.579,190.019
	v-22.091h8.314c3.544,0,6.027,1.988,6.027,5.63c0,2.783-1.954,4.671-3.908,5.067c2.352,0.365,4.338,2.882,4.338,5.433
	c0,3.776-2.45,5.961-6.325,5.961H81.579z M94.761,173.557c0-2.516-1.622-4.636-4.868-4.636h-7.254v9.241h7.254
	C93.139,178.162,94.761,176.109,94.761,173.557z M95.193,184.09c0-2.516-1.723-4.934-5.167-4.934h-7.387v9.869h7.387
	C93.271,189.025,95.193,187.104,95.193,184.09z M107.163,190.019v-22.091h5.697v22.091H107.163z M138.503,190.019l-9.34-12.784
	v12.784h-5.696v-22.091h5.862l8.943,12.155v-12.155H144v22.091H138.503z"/>
</svg>
