<?xml version="1.0" encoding="utf-8"?>
<!-- Generator: Adobe Illustrator 17.0.0, SVG Export Plug-In . SVG Version: 6.00 Build 0)  -->
<!DOCTYPE svg PUBLIC "-//W3C//DTD SVG 1.1//EN" "http://www.w3.org/Graphics/SVG/1.1/DTD/svg11.dtd" [
	<!ENTITY ns_extend "http://ns.adobe.com/Extensibility/1.0/">
	<!ENTITY ns_ai "http://ns.adobe.com/AdobeIllustrator/10.0/">
	<!ENTITY ns_graphs "http://ns.adobe.com/Graphs/1.0/">
	<!ENTITY ns_vars "http://ns.adobe.com/Variables/1.0/">
	<!ENTITY ns_imrep "http://ns.adobe.com/ImageReplacement/1.0/">
	<!ENTITY ns_sfw "http://ns.adobe.com/SaveForWeb/1.0/">
	<!ENTITY ns_custom "http://ns.adobe.com/GenericCustomNamespace/1.0/">
	<!ENTITY ns_adobe_xpath "http://ns.adobe.com/XPath/1.0/">
]>
<svg version="1.1" xmlns:x="&ns_extend;" xmlns:i="&ns_ai;" xmlns:graph="&ns_graphs;"
	 xmlns="http://www.w3.org/2000/svg" xmlns:xlink="http://www.w3.org/1999/xlink" x="0px" y="0px" width="1008px" height="48px"
	 viewBox="0 0 1008 48" enable-background="new 0 0 1008 48" xml:space="preserve">
<metadata>
	<sfw  xmlns="&ns_sfw;">
		<slices></slices>
		<sliceSourceBounds  height="48" width="1008" y="354.5" x="167.5" bottomLeftOrigin="true"></sliceSourceBounds>
	</sfw>
</metadata>
<g id="menuDark">
	<g id="menuDark_1_">
		<rect x="0" fill="#C9AF78" fill-opacity="0" width="1008" height="48"/>
		<path fill="#C9AF78" d="M46.154,25.846H1.846C0.827,25.846,0,25.02,0,24s0.827-1.846,1.846-1.846h44.308
			C47.173,22.154,48,22.98,48,24S47.173,25.846,46.154,25.846z"/>
		<g opacity="0.9">
			<path fill="#C9AF78" d="M142.154,25.846H97.846C96.827,25.846,96,25.02,96,24s0.827-1.846,1.846-1.846h44.308
				c1.02,0,1.846,0.827,1.846,1.846S143.173,25.846,142.154,25.846z"/>
		</g>
		<g opacity="0.8">
			<path fill="#C9AF78" d="M238.154,25.847h-44.308c-1.02,0-1.846-0.827-1.846-1.846s0.827-1.846,1.846-1.846h44.308
				c1.02,0,1.846,0.827,1.846,1.846S239.173,25.847,238.154,25.847z"/>
		</g>
		<g opacity="0.4">
			<path fill="#C9AF78" d="M622.154,25.846h-44.308c-1.02,0-1.846-0.827-1.846-1.846s0.827-1.846,1.846-1.846h44.308
				c1.02,0,1.846,0.827,1.846,1.846S623.173,25.846,622.154,25.846z"/>
		</g>
		<g opacity="0.3">
			<path fill="#C9AF78" d="M718.154,25.848h-44.308c-1.02,0-1.846-0.827-1.846-1.846s0.827-1.846,1.846-1.846h44.308
				c1.02,0,1.846,0.827,1.846,1.846S719.173,25.848,718.154,25.848z"/>
		</g>
		<g opacity="0.2">
			<path fill="#C9AF78" d="M814.154,25.847h-44.308c-1.02,0-1.846-0.827-1.846-1.846s0.827-1.846,1.846-1.846h44.308
				c1.02,0,1.846,0.827,1.846,1.846S815.173,25.847,814.154,25.847z"/>
		</g>
		<g opacity="0.1">
			<path fill="#C9AF78" d="M910.154,25.849h-44.308c-1.02,0-1.846-0.827-1.846-1.846s0.827-1.846,1.846-1.846h44.308
				c1.02,0,1.846,0.827,1.846,1.846S911.173,25.849,910.154,25.849z"/>
		</g>
		<g opacity="0">
			<path fill="#C9AF78" d="M1006.154,25.846h-44.308c-1.02,0-1.846-0.827-1.846-1.846s0.827-1.846,1.846-1.846h44.308
				c1.02,0,1.846,0.827,1.846,1.846S1007.173,25.846,1006.154,25.846z"/>
		</g>
		<g opacity="0.7">
			<path fill="#C9AF78" d="M334.154,25.848h-44.308c-1.02,0-1.846-0.827-1.846-1.846s0.827-1.846,1.846-1.846h44.308
				c1.02,0,1.846,0.827,1.846,1.846S335.173,25.848,334.154,25.848z"/>
		</g>
		<g opacity="0.6">
			<path fill="#C9AF78" d="M430.154,25.847h-44.308c-1.02,0-1.846-0.827-1.846-1.846s0.827-1.846,1.846-1.846h44.308
				c1.02,0,1.846,0.827,1.846,1.846S431.173,25.847,430.154,25.847z"/>
		</g>
		<g opacity="0.5">
			<path fill="#C9AF78" d="M526.154,25.848h-44.308c-1.02,0-1.846-0.827-1.846-1.846s0.827-1.846,1.846-1.846h44.308
				c1.02,0,1.846,0.827,1.846,1.846S527.173,25.848,526.154,25.848z"/>
		</g>
		<g>
			<path fill="#C9AF78" d="M46.154,3.692H1.846C0.827,3.692,0,2.866,0,1.846S0.827,0,1.846,0h44.308C47.173,0,48,0.827,48,1.846
				S47.173,3.692,46.154,3.692z"/>
		</g>
		<g>
			<path fill="#C9AF78" d="M141.507,7.474c-0.045,0-0.09-0.002-0.136-0.005l-43.01-3.133c-1.017-0.075-1.781-0.959-1.707-1.976
				s0.947-1.77,1.976-1.707l43.01,3.133c1.017,0.075,1.781,0.959,1.707,1.976C143.275,6.733,142.465,7.474,141.507,7.474z"/>
		</g>
		<g>
			<path fill="#C9AF78" d="M236.858,11.256c-0.092,0-0.184-0.006-0.277-0.021L194.87,4.97c-1.009-0.151-1.703-1.092-1.551-2.099
				c0.151-1.01,1.1-1.707,2.099-1.551l41.712,6.266c1.009,0.151,1.703,1.092,1.551,2.099
				C238.544,10.6,237.756,11.256,236.858,11.256z"/>
		</g>
		<g>
			<path fill="#C9AF78" d="M332.209,15.04c-0.139,0-0.279-0.015-0.42-0.048l-40.415-9.399c-0.993-0.231-1.611-1.223-1.38-2.217
				s1.223-1.611,2.217-1.38l40.415,9.399c0.993,0.231,1.611,1.223,1.38,2.217C333.808,14.465,333.049,15.04,332.209,15.04z"/>
		</g>
		<g>
			<path fill="#C9AF78" d="M427.559,18.821c-0.187,0-0.376-0.029-0.563-0.089L387.878,6.2c-0.971-0.311-1.505-1.35-1.194-2.321
				c0.311-0.97,1.348-1.508,2.321-1.194l39.117,12.532c0.971,0.311,1.505,1.35,1.194,2.321
				C429.066,18.321,428.34,18.821,427.559,18.821z"/>
		</g>
		<g>
			<path fill="#C9AF78" d="M522.909,22.604c-0.235,0-0.474-0.046-0.706-0.142L484.384,6.797c-0.942-0.39-1.389-1.47-0.999-2.412
				c0.39-0.941,1.467-1.389,2.412-0.999l37.819,15.665c0.942,0.39,1.389,1.47,0.999,2.412
				C524.32,22.174,523.633,22.604,522.909,22.604z"/>
		</g>
		<path fill="#C9AF78" d="M986.611,24l14.36-14.36c0.721-0.721,0.721-1.889,0-2.611c-0.721-0.721-1.889-0.721-2.61,0L984,21.389
			l-14.36-14.36c-0.721-0.721-1.889-0.721-2.611,0c-0.721,0.721-0.721,1.889,0,2.611L981.389,24l-14.36,14.36
			c-0.721,0.721-0.721,1.889,0,2.611c0.361,0.361,0.833,0.541,1.305,0.541s0.945-0.18,1.305-0.541L984,26.611l14.36,14.36
			c0.36,0.361,0.833,0.541,1.305,0.541s0.945-0.18,1.305-0.541c0.721-0.721,0.721-1.889,0-2.611L986.611,24z"/>
		<path fill="#C9AF78" d="M893.387,24.002l12.134-10.486c0.772-0.667,0.856-1.833,0.19-2.604c-0.667-0.773-1.834-0.856-2.604-0.19
			l-12.544,10.84l-17.67-15.271c-0.773-0.666-1.938-0.582-2.604,0.19s-0.581,1.937,0.19,2.604l17.261,14.917l-17.261,14.917
			c-0.772,0.667-0.856,1.833-0.19,2.604c0.365,0.423,0.881,0.639,1.398,0.639c0.427,0,0.857-0.148,1.206-0.449l17.671-15.271
			l12.544,10.84c0.349,0.301,0.779,0.449,1.206,0.449c0.517,0,1.033-0.216,1.398-0.639c0.666-0.772,0.581-1.937-0.19-2.604
			L893.387,24.002z"/>
		<path fill="#C9AF78" d="M810.06,30.617L801.104,24l8.956-6.616c0.82-0.606,0.993-1.761,0.387-2.582
			c-0.604-0.82-1.761-0.995-2.582-0.388l-9.868,7.291L776.135,5.553c-0.821-0.609-1.977-0.432-2.582,0.388
			c-0.606,0.82-0.433,1.976,0.388,2.582l20.95,15.479l-20.95,15.478c-0.82,0.606-0.993,1.761-0.388,2.582
			c0.361,0.49,0.92,0.749,1.486,0.749c0.38,0,0.765-0.117,1.095-0.362l21.863-16.152l9.868,7.291
			c0.33,0.244,0.715,0.361,1.095,0.361c0.566,0,1.125-0.259,1.486-0.749C811.053,32.379,810.88,31.223,810.06,30.617z"/>
		<path fill="#C9AF78" d="M714.587,26.753l-4.419-2.752l4.419-2.752c0.866-0.539,1.13-1.678,0.592-2.543
			c-0.54-0.866-1.679-1.13-2.543-0.592l-5.962,3.712l-27.31-17.004c-0.863-0.537-2.002-0.275-2.543,0.592
			c-0.538,0.865-0.274,2.004,0.592,2.543l25.768,16.044l-25.768,16.044c-0.866,0.539-1.13,1.678-0.592,2.543
			c0.351,0.563,0.953,0.871,1.569,0.871c0.333,0,0.671-0.09,0.974-0.279l27.311-17.005l5.962,3.712
			c0.303,0.188,0.64,0.279,0.974,0.279c0.617,0,1.219-0.308,1.569-0.871C715.717,28.431,715.453,27.292,714.587,26.753z"/>
		<path fill="#C9AF78" d="M619.902,22.617c-0.466-0.906-1.578-1.264-2.486-0.797l-0.2,0.103L582.584,4.098
			c-0.908-0.466-2.019-0.109-2.486,0.797c-0.467,0.906-0.11,2.019,0.797,2.486L613.182,24l-32.287,16.619
			c-0.907,0.467-1.264,1.58-0.797,2.486c0.327,0.636,0.974,1.001,1.643,1.001c0.284,0,0.573-0.066,0.843-0.205l34.632-17.826
			l0.2,0.103c0.271,0.139,0.559,0.205,0.843,0.205c0.67,0,1.316-0.365,1.643-1.002c0.229-0.445,0.258-0.939,0.122-1.382
			C620.16,23.556,620.131,23.062,619.902,22.617z"/>
		<g>
			<path fill="#C9AF78" d="M485.091,44.758c-0.725,0-1.412-0.43-1.706-1.14c-0.39-0.942,0.057-2.022,0.999-2.412l37.819-15.665
				c0.946-0.391,2.022,0.058,2.412,0.999c0.39,0.942-0.057,2.022-0.999,2.412l-37.819,15.665
				C485.565,44.712,485.327,44.758,485.091,44.758z"/>
		</g>
		<g>
			<path fill="#C9AF78" d="M388.441,45.405c-0.782,0-1.507-0.5-1.758-1.284c-0.311-0.971,0.224-2.01,1.194-2.321l39.117-12.532
				c0.976-0.316,2.011,0.224,2.321,1.194c0.311,0.971-0.224,2.01-1.194,2.321l-39.117,12.532
				C388.817,45.376,388.627,45.405,388.441,45.405z"/>
		</g>
		<g>
			<path fill="#C9AF78" d="M291.791,46.055c-0.839,0-1.598-0.575-1.797-1.428c-0.231-0.993,0.387-1.986,1.38-2.217l40.415-9.398
				c0.99-0.228,1.986,0.387,2.217,1.38c0.231,0.993-0.387,1.986-1.38,2.217l-40.415,9.398
				C292.07,46.039,291.929,46.055,291.791,46.055z"/>
		</g>
		<g>
			<path fill="#C9AF78" d="M195.142,46.703c-0.898,0-1.686-0.656-1.823-1.572c-0.151-1.008,0.543-1.948,1.551-2.099l41.712-6.266
				c0.999-0.155,1.948,0.542,2.099,1.551c0.151,1.008-0.543,1.948-1.551,2.099l-41.712,6.266
				C195.325,46.697,195.233,46.703,195.142,46.703z"/>
		</g>
		<g>
			<path fill="#C9AF78" d="M98.493,47.351c-0.959,0-1.769-0.741-1.84-1.712c-0.074-1.017,0.69-1.901,1.707-1.976l43.01-3.133
				c1.029-0.059,1.901,0.691,1.976,1.707c0.074,1.017-0.691,1.901-1.707,1.976l-43.01,3.133
				C98.584,47.349,98.538,47.351,98.493,47.351z"/>
		</g>
		<g>
			<path fill="#C9AF78" d="M46.154,48H1.846C0.827,48,0,47.173,0,46.154s0.827-1.846,1.846-1.846h44.308
				c1.02,0,1.846,0.827,1.846,1.846S47.173,48,46.154,48z"/>
		</g>
	</g>
</g>
<g id="menuLight">
	<g id="menuLight_1_">
		<rect x="0" fill="#FFFFFF" fill-opacity="0" width="1008" height="48"/>
		
			<linearGradient id="SVGID_1_" gradientUnits="userSpaceOnUse" x1="-251.04" y1="105.34" x2="-203.04" y2="105.34" gradientTransform="matrix(1 0 0 -1 251.04 129.34)">
			<stop  offset="0" style="stop-color:#FBEFBF"/>
			<stop  offset="0.2058" style="stop-color:#FBEFBC"/>
			<stop  offset="0.3532" style="stop-color:#F9EEB3"/>
			<stop  offset="0.4821" style="stop-color:#F7EDA3"/>
			<stop  offset="0.5021" style="stop-color:#F6EDA0"/>
			<stop  offset="1" style="stop-color:#CDB378"/>
		</linearGradient>
		<path fill="url(#SVGID_1_)" d="M46.154,25.846H1.846C0.827,25.846,0,25.02,0,24s0.827-1.846,1.846-1.846h44.308
			C47.173,22.154,48,22.98,48,24S47.173,25.846,46.154,25.846z"/>
		<g opacity="0.9">
			
				<linearGradient id="SVGID_2_" gradientUnits="userSpaceOnUse" x1="-155.04" y1="105.34" x2="-107.04" y2="105.34" gradientTransform="matrix(1 0 0 -1 251.04 129.34)">
				<stop  offset="0" style="stop-color:#FBEFBF"/>
				<stop  offset="0.2058" style="stop-color:#FBEFBC"/>
				<stop  offset="0.3532" style="stop-color:#F9EEB3"/>
				<stop  offset="0.4821" style="stop-color:#F7EDA3"/>
				<stop  offset="0.5021" style="stop-color:#F6EDA0"/>
				<stop  offset="1" style="stop-color:#CDB378"/>
			</linearGradient>
			<path fill="url(#SVGID_2_)" d="M142.154,25.846H97.846C96.827,25.846,96,25.02,96,24s0.827-1.846,1.846-1.846h44.308
				c1.02,0,1.846,0.827,1.846,1.846S143.173,25.846,142.154,25.846z"/>
		</g>
		<g opacity="0.8">
			
				<linearGradient id="SVGID_3_" gradientUnits="userSpaceOnUse" x1="-59.04" y1="105.339" x2="-11.04" y2="105.339" gradientTransform="matrix(1 0 0 -1 251.04 129.34)">
				<stop  offset="0" style="stop-color:#FBEFBF"/>
				<stop  offset="0.2058" style="stop-color:#FBEFBC"/>
				<stop  offset="0.3532" style="stop-color:#F9EEB3"/>
				<stop  offset="0.4821" style="stop-color:#F7EDA3"/>
				<stop  offset="0.5021" style="stop-color:#F6EDA0"/>
				<stop  offset="1" style="stop-color:#CDB378"/>
			</linearGradient>
			<path fill="url(#SVGID_3_)" d="M238.154,25.847h-44.308c-1.02,0-1.846-0.827-1.846-1.846s0.827-1.846,1.846-1.846h44.308
				c1.02,0,1.846,0.827,1.846,1.846S239.173,25.847,238.154,25.847z"/>
		</g>
		<g opacity="0.4">
			
				<linearGradient id="SVGID_4_" gradientUnits="userSpaceOnUse" x1="324.96" y1="105.34" x2="372.96" y2="105.34" gradientTransform="matrix(1 0 0 -1 251.04 129.34)">
				<stop  offset="0" style="stop-color:#FBEFBF"/>
				<stop  offset="0.2058" style="stop-color:#FBEFBC"/>
				<stop  offset="0.3532" style="stop-color:#F9EEB3"/>
				<stop  offset="0.4821" style="stop-color:#F7EDA3"/>
				<stop  offset="0.5021" style="stop-color:#F6EDA0"/>
				<stop  offset="1" style="stop-color:#CDB378"/>
			</linearGradient>
			<path fill="url(#SVGID_4_)" d="M622.154,25.846h-44.308c-1.02,0-1.846-0.827-1.846-1.846s0.827-1.846,1.846-1.846h44.308
				c1.02,0,1.846,0.827,1.846,1.846S623.173,25.846,622.154,25.846z"/>
		</g>
		<g opacity="0.3">
			
				<linearGradient id="SVGID_5_" gradientUnits="userSpaceOnUse" x1="420.96" y1="105.338" x2="468.96" y2="105.338" gradientTransform="matrix(1 0 0 -1 251.04 129.34)">
				<stop  offset="0" style="stop-color:#FBEFBF"/>
				<stop  offset="0.2058" style="stop-color:#FBEFBC"/>
				<stop  offset="0.3532" style="stop-color:#F9EEB3"/>
				<stop  offset="0.4821" style="stop-color:#F7EDA3"/>
				<stop  offset="0.5021" style="stop-color:#F6EDA0"/>
				<stop  offset="1" style="stop-color:#CDB378"/>
			</linearGradient>
			<path fill="url(#SVGID_5_)" d="M718.154,25.848h-44.308c-1.02,0-1.846-0.827-1.846-1.846s0.827-1.846,1.846-1.846h44.308
				c1.02,0,1.846,0.827,1.846,1.846S719.173,25.848,718.154,25.848z"/>
		</g>
		<g opacity="0.2">
			
				<linearGradient id="SVGID_6_" gradientUnits="userSpaceOnUse" x1="516.96" y1="105.339" x2="564.96" y2="105.339" gradientTransform="matrix(1 0 0 -1 251.04 129.34)">
				<stop  offset="0" style="stop-color:#FBEFBF"/>
				<stop  offset="0.2058" style="stop-color:#FBEFBC"/>
				<stop  offset="0.3532" style="stop-color:#F9EEB3"/>
				<stop  offset="0.4821" style="stop-color:#F7EDA3"/>
				<stop  offset="0.5021" style="stop-color:#F6EDA0"/>
				<stop  offset="1" style="stop-color:#CDB378"/>
			</linearGradient>
			<path fill="url(#SVGID_6_)" d="M814.154,25.847h-44.308c-1.02,0-1.846-0.827-1.846-1.846s0.827-1.846,1.846-1.846h44.308
				c1.02,0,1.846,0.827,1.846,1.846S815.173,25.847,814.154,25.847z"/>
		</g>
		<g opacity="0.1">
			
				<linearGradient id="SVGID_7_" gradientUnits="userSpaceOnUse" x1="612.96" y1="105.337" x2="660.96" y2="105.337" gradientTransform="matrix(1 0 0 -1 251.04 129.34)">
				<stop  offset="0" style="stop-color:#FBEFBF"/>
				<stop  offset="0.2058" style="stop-color:#FBEFBC"/>
				<stop  offset="0.3532" style="stop-color:#F9EEB3"/>
				<stop  offset="0.4821" style="stop-color:#F7EDA3"/>
				<stop  offset="0.5021" style="stop-color:#F6EDA0"/>
				<stop  offset="1" style="stop-color:#CDB378"/>
			</linearGradient>
			<path fill="url(#SVGID_7_)" d="M910.154,25.849h-44.308c-1.02,0-1.846-0.827-1.846-1.846s0.827-1.846,1.846-1.846h44.308
				c1.02,0,1.846,0.827,1.846,1.846S911.173,25.849,910.154,25.849z"/>
		</g>
		<g opacity="0">
			
				<linearGradient id="SVGID_8_" gradientUnits="userSpaceOnUse" x1="708.96" y1="105.34" x2="756.96" y2="105.34" gradientTransform="matrix(1 0 0 -1 251.04 129.34)">
				<stop  offset="0" style="stop-color:#FBEFBF"/>
				<stop  offset="0.2058" style="stop-color:#FBEFBC"/>
				<stop  offset="0.3532" style="stop-color:#F9EEB3"/>
				<stop  offset="0.4821" style="stop-color:#F7EDA3"/>
				<stop  offset="0.5021" style="stop-color:#F6EDA0"/>
				<stop  offset="1" style="stop-color:#CDB378"/>
			</linearGradient>
			<path fill="url(#SVGID_8_)" d="M1006.154,25.846h-44.308c-1.02,0-1.846-0.827-1.846-1.846s0.827-1.846,1.846-1.846h44.308
				c1.02,0,1.846,0.827,1.846,1.846S1007.173,25.846,1006.154,25.846z"/>
		</g>
		<g opacity="0.7">
			
				<linearGradient id="SVGID_9_" gradientUnits="userSpaceOnUse" x1="36.96" y1="105.338" x2="84.96" y2="105.338" gradientTransform="matrix(1 0 0 -1 251.04 129.34)">
				<stop  offset="0" style="stop-color:#FBEFBF"/>
				<stop  offset="0.2058" style="stop-color:#FBEFBC"/>
				<stop  offset="0.3532" style="stop-color:#F9EEB3"/>
				<stop  offset="0.4821" style="stop-color:#F7EDA3"/>
				<stop  offset="0.5021" style="stop-color:#F6EDA0"/>
				<stop  offset="1" style="stop-color:#CDB378"/>
			</linearGradient>
			<path fill="url(#SVGID_9_)" d="M334.154,25.848h-44.308c-1.02,0-1.846-0.827-1.846-1.846s0.827-1.846,1.846-1.846h44.308
				c1.02,0,1.846,0.827,1.846,1.846S335.173,25.848,334.154,25.848z"/>
		</g>
		<g opacity="0.6">
			
				<linearGradient id="SVGID_10_" gradientUnits="userSpaceOnUse" x1="132.96" y1="105.339" x2="180.96" y2="105.339" gradientTransform="matrix(1 0 0 -1 251.04 129.34)">
				<stop  offset="0" style="stop-color:#FBEFBF"/>
				<stop  offset="0.2058" style="stop-color:#FBEFBC"/>
				<stop  offset="0.3532" style="stop-color:#F9EEB3"/>
				<stop  offset="0.4821" style="stop-color:#F7EDA3"/>
				<stop  offset="0.5021" style="stop-color:#F6EDA0"/>
				<stop  offset="1" style="stop-color:#CDB378"/>
			</linearGradient>
			<path fill="url(#SVGID_10_)" d="M430.154,25.847h-44.308c-1.02,0-1.846-0.827-1.846-1.846s0.827-1.846,1.846-1.846h44.308
				c1.02,0,1.846,0.827,1.846,1.846S431.173,25.847,430.154,25.847z"/>
		</g>
		<g opacity="0.5">
			
				<linearGradient id="SVGID_11_" gradientUnits="userSpaceOnUse" x1="228.96" y1="105.338" x2="276.96" y2="105.338" gradientTransform="matrix(1 0 0 -1 251.04 129.34)">
				<stop  offset="0" style="stop-color:#FBEFBF"/>
				<stop  offset="0.2058" style="stop-color:#FBEFBC"/>
				<stop  offset="0.3532" style="stop-color:#F9EEB3"/>
				<stop  offset="0.4821" style="stop-color:#F7EDA3"/>
				<stop  offset="0.5021" style="stop-color:#F6EDA0"/>
				<stop  offset="1" style="stop-color:#CDB378"/>
			</linearGradient>
			<path fill="url(#SVGID_11_)" d="M526.154,25.848h-44.308c-1.02,0-1.846-0.827-1.846-1.846s0.827-1.846,1.846-1.846h44.308
				c1.02,0,1.846,0.827,1.846,1.846S527.173,25.848,526.154,25.848z"/>
		</g>
		<g>
			
				<linearGradient id="SVGID_12_" gradientUnits="userSpaceOnUse" x1="-251.04" y1="127.494" x2="-203.04" y2="127.494" gradientTransform="matrix(1 0 0 -1 251.04 129.34)">
				<stop  offset="0" style="stop-color:#FBEFBF"/>
				<stop  offset="0.2058" style="stop-color:#FBEFBC"/>
				<stop  offset="0.3532" style="stop-color:#F9EEB3"/>
				<stop  offset="0.4821" style="stop-color:#F7EDA3"/>
				<stop  offset="0.5021" style="stop-color:#F6EDA0"/>
				<stop  offset="1" style="stop-color:#CDB378"/>
			</linearGradient>
			<path fill="url(#SVGID_12_)" d="M46.154,3.692H1.846C0.827,3.692,0,2.866,0,1.846S0.827,0,1.846,0h44.308
				C47.173,0,48,0.827,48,1.846S47.173,3.692,46.154,3.692z"/>
		</g>
		<g>
			
				<linearGradient id="SVGID_13_" gradientUnits="userSpaceOnUse" x1="-341.9393" y1="210.7779" x2="-286.333" y2="210.7779" gradientTransform="matrix(0.8293 -0.0707 -0.0707 -0.8293 395.4157 156.6509)">
				<stop  offset="0" style="stop-color:#FBEFBF"/>
				<stop  offset="0.2058" style="stop-color:#FBEFBC"/>
				<stop  offset="0.3532" style="stop-color:#F9EEB3"/>
				<stop  offset="0.4821" style="stop-color:#F7EDA3"/>
				<stop  offset="0.5021" style="stop-color:#F6EDA0"/>
				<stop  offset="1" style="stop-color:#CDB378"/>
			</linearGradient>
			<path fill="url(#SVGID_13_)" d="M141.507,7.474c-0.045,0-0.09-0.002-0.136-0.005l-43.01-3.133
				c-1.017-0.075-1.781-0.959-1.707-1.976s0.947-1.77,1.976-1.707l43.01,3.133c1.017,0.075,1.781,0.959,1.707,1.976
				C143.275,6.733,142.465,7.474,141.507,7.474z"/>
		</g>
		<g>
			
				<linearGradient id="SVGID_14_" gradientUnits="userSpaceOnUse" x1="-446.6378" y1="358.8057" x2="-382.5651" y2="358.8057" gradientTransform="matrix(0.6586 -0.1414 -0.1414 -0.6586 539.7914 183.9618)">
				<stop  offset="0" style="stop-color:#FBEFBF"/>
				<stop  offset="0.2058" style="stop-color:#FBEFBC"/>
				<stop  offset="0.3532" style="stop-color:#F9EEB3"/>
				<stop  offset="0.4821" style="stop-color:#F7EDA3"/>
				<stop  offset="0.5021" style="stop-color:#F6EDA0"/>
				<stop  offset="1" style="stop-color:#CDB378"/>
			</linearGradient>
			<path fill="url(#SVGID_14_)" d="M236.858,11.256c-0.092,0-0.184-0.006-0.277-0.021L194.87,4.97
				c-1.009-0.151-1.703-1.092-1.551-2.099c0.151-1.01,1.1-1.707,2.099-1.551l41.712,6.266c1.009,0.151,1.703,1.092,1.551,2.099
				C238.544,10.6,237.756,11.256,236.858,11.256z"/>
		</g>
		<g>
			
				<linearGradient id="SVGID_15_" gradientUnits="userSpaceOnUse" x1="-524.377" y1="628.4517" x2="-454.8096" y2="628.4517" gradientTransform="matrix(0.4879 -0.2121 -0.2121 -0.4879 684.1671 211.2727)">
				<stop  offset="0" style="stop-color:#FBEFBF"/>
				<stop  offset="0.2058" style="stop-color:#FBEFBC"/>
				<stop  offset="0.3532" style="stop-color:#F9EEB3"/>
				<stop  offset="0.4821" style="stop-color:#F7EDA3"/>
				<stop  offset="0.5021" style="stop-color:#F6EDA0"/>
				<stop  offset="1" style="stop-color:#CDB378"/>
			</linearGradient>
			<path fill="url(#SVGID_15_)" d="M332.209,15.04c-0.139,0-0.279-0.015-0.42-0.048l-40.415-9.399
				c-0.993-0.231-1.611-1.223-1.38-2.217s1.223-1.611,2.217-1.38l40.415,9.399c0.993,0.231,1.611,1.223,1.38,2.217
				C333.808,14.465,333.049,15.04,332.209,15.04z"/>
		</g>
		<g>
			
				<linearGradient id="SVGID_16_" gradientUnits="userSpaceOnUse" x1="-410.5514" y1="1058.8057" x2="-352.7806" y2="1058.8057" gradientTransform="matrix(0.3172 -0.2828 -0.2828 -0.3172 828.5427 238.5836)">
				<stop  offset="0" style="stop-color:#FBEFBF"/>
				<stop  offset="0.2058" style="stop-color:#FBEFBC"/>
				<stop  offset="0.3532" style="stop-color:#F9EEB3"/>
				<stop  offset="0.4821" style="stop-color:#F7EDA3"/>
				<stop  offset="0.5021" style="stop-color:#F6EDA0"/>
				<stop  offset="1" style="stop-color:#CDB378"/>
			</linearGradient>
			<path fill="url(#SVGID_16_)" d="M427.559,18.821c-0.187,0-0.376-0.029-0.563-0.089L387.878,6.2
				c-0.971-0.311-1.505-1.35-1.194-2.321c0.311-0.97,1.348-1.508,2.321-1.194l39.117,12.532c0.971,0.311,1.505,1.35,1.194,2.321
				C429.066,18.321,428.34,18.821,427.559,18.821z"/>
		</g>
		<g>
			
				<linearGradient id="SVGID_17_" gradientUnits="userSpaceOnUse" x1="121.0004" y1="1435.2721" x2="162.507" y2="1335.0662" gradientTransform="matrix(0.1464 -0.3536 -0.3536 -0.1464 972.9421 265.8375)">
				<stop  offset="0" style="stop-color:#FBEFBF"/>
				<stop  offset="0.2058" style="stop-color:#FBEFBC"/>
				<stop  offset="0.3532" style="stop-color:#F9EEB3"/>
				<stop  offset="0.4821" style="stop-color:#F7EDA3"/>
				<stop  offset="0.5021" style="stop-color:#F6EDA0"/>
				<stop  offset="1" style="stop-color:#CDB378"/>
			</linearGradient>
			<path fill="url(#SVGID_17_)" d="M522.909,22.604c-0.235,0-0.474-0.046-0.706-0.142L484.384,6.797
				c-0.942-0.39-1.389-1.47-0.999-2.412c0.39-0.941,1.467-1.389,2.412-0.999l37.819,15.665c0.942,0.39,1.389,1.47,0.999,2.412
				C524.32,22.174,523.633,22.604,522.909,22.604z"/>
		</g>
		
			<linearGradient id="SVGID_18_" gradientUnits="userSpaceOnUse" x1="715.4482" y1="105.3398" x2="750.4717" y2="105.3398" gradientTransform="matrix(1 0 0 -1 251.04 129.34)">
			<stop  offset="0" style="stop-color:#FBEFBF"/>
			<stop  offset="0.2058" style="stop-color:#FBEFBC"/>
			<stop  offset="0.3532" style="stop-color:#F9EEB3"/>
			<stop  offset="0.4821" style="stop-color:#F7EDA3"/>
			<stop  offset="0.5021" style="stop-color:#F6EDA0"/>
			<stop  offset="1" style="stop-color:#CDB378"/>
		</linearGradient>
		<path fill="url(#SVGID_18_)" d="M986.611,24l14.36-14.36c0.721-0.721,0.721-1.889,0-2.611c-0.721-0.721-1.889-0.721-2.61,0
			L984,21.389l-14.36-14.36c-0.721-0.721-1.889-0.721-2.611,0c-0.721,0.721-0.721,1.889,0,2.611L981.389,24l-14.36,14.36
			c-0.721,0.721-0.721,1.889,0,2.611c0.361,0.361,0.833,0.541,1.305,0.541s0.945-0.18,1.305-0.541L984,26.611l14.36,14.36
			c0.36,0.361,0.833,0.541,1.305,0.541s0.945-0.18,1.305-0.541c0.721-0.721,0.721-1.889,0-2.611L986.611,24z"/>
		
			<linearGradient id="SVGID_19_" gradientUnits="userSpaceOnUse" x1="618.7999" y1="105.338" x2="655.1208" y2="105.338" gradientTransform="matrix(1 0 0 -1 251.04 129.34)">
			<stop  offset="0" style="stop-color:#FBEFBF"/>
			<stop  offset="0.2058" style="stop-color:#FBEFBC"/>
			<stop  offset="0.3532" style="stop-color:#F9EEB3"/>
			<stop  offset="0.4821" style="stop-color:#F7EDA3"/>
			<stop  offset="0.5021" style="stop-color:#F6EDA0"/>
			<stop  offset="1" style="stop-color:#CDB378"/>
		</linearGradient>
		<path fill="url(#SVGID_19_)" d="M893.387,24.002l12.134-10.486c0.772-0.667,0.856-1.833,0.19-2.604
			c-0.667-0.773-1.834-0.856-2.604-0.19l-12.544,10.84l-17.67-15.271c-0.773-0.666-1.938-0.582-2.604,0.19s-0.581,1.937,0.19,2.604
			l17.261,14.917l-17.261,14.917c-0.772,0.667-0.856,1.833-0.19,2.604c0.365,0.423,0.881,0.639,1.398,0.639
			c0.427,0,0.857-0.148,1.206-0.449l17.671-15.271l12.544,10.84c0.349,0.301,0.779,0.449,1.206,0.449
			c0.517,0,1.033-0.216,1.398-0.639c0.666-0.772,0.581-1.937-0.19-2.604L893.387,24.002z"/>
		
			<linearGradient id="SVGID_20_" gradientUnits="userSpaceOnUse" x1="522.1514" y1="105.3393" x2="559.7687" y2="105.3393" gradientTransform="matrix(1 0 0 -1 251.04 129.34)">
			<stop  offset="0" style="stop-color:#FBEFBF"/>
			<stop  offset="0.2058" style="stop-color:#FBEFBC"/>
			<stop  offset="0.3532" style="stop-color:#F9EEB3"/>
			<stop  offset="0.4821" style="stop-color:#F7EDA3"/>
			<stop  offset="0.5021" style="stop-color:#F6EDA0"/>
			<stop  offset="1" style="stop-color:#CDB378"/>
		</linearGradient>
		<path fill="url(#SVGID_20_)" d="M810.06,30.617L801.104,24l8.956-6.616c0.82-0.606,0.993-1.761,0.387-2.582
			c-0.604-0.82-1.761-0.995-2.582-0.388l-9.868,7.291L776.135,5.553c-0.821-0.609-1.977-0.432-2.582,0.388
			c-0.606,0.82-0.433,1.976,0.388,2.582l20.95,15.479l-20.95,15.478c-0.82,0.606-0.993,1.761-0.388,2.582
			c0.361,0.49,0.92,0.749,1.486,0.749c0.38,0,0.765-0.117,1.095-0.362l21.863-16.152l9.868,7.291
			c0.33,0.244,0.715,0.361,1.095,0.361c0.566,0,1.125-0.259,1.486-0.749C811.053,32.379,810.88,31.223,810.06,30.617z"/>
		
			<linearGradient id="SVGID_21_" gradientUnits="userSpaceOnUse" x1="425.5022" y1="105.3387" x2="464.418" y2="105.3387" gradientTransform="matrix(1 0 0 -1 251.04 129.34)">
			<stop  offset="0" style="stop-color:#FBEFBF"/>
			<stop  offset="0.2058" style="stop-color:#FBEFBC"/>
			<stop  offset="0.3532" style="stop-color:#F9EEB3"/>
			<stop  offset="0.4821" style="stop-color:#F7EDA3"/>
			<stop  offset="0.5021" style="stop-color:#F6EDA0"/>
			<stop  offset="1" style="stop-color:#CDB378"/>
		</linearGradient>
		<path fill="url(#SVGID_21_)" d="M714.587,26.753l-4.419-2.752l4.419-2.752c0.866-0.539,1.13-1.678,0.592-2.543
			c-0.54-0.866-1.679-1.13-2.543-0.592l-5.962,3.712l-27.31-17.004c-0.863-0.537-2.002-0.275-2.543,0.592
			c-0.538,0.865-0.274,2.004,0.592,2.543l25.768,16.044l-25.768,16.044c-0.866,0.539-1.13,1.678-0.592,2.543
			c0.351,0.563,0.953,0.871,1.569,0.871c0.333,0,0.671-0.09,0.974-0.279l27.311-17.005l5.962,3.712
			c0.303,0.188,0.64,0.279,0.974,0.279c0.617,0,1.219-0.308,1.569-0.871C715.717,28.431,715.453,27.292,714.587,26.753z"/>
		
			<linearGradient id="SVGID_22_" gradientUnits="userSpaceOnUse" x1="328.8528" y1="105.3403" x2="369.0659" y2="105.3403" gradientTransform="matrix(1 0 0 -1 251.04 129.34)">
			<stop  offset="0" style="stop-color:#FBEFBF"/>
			<stop  offset="0.2058" style="stop-color:#FBEFBC"/>
			<stop  offset="0.3532" style="stop-color:#F9EEB3"/>
			<stop  offset="0.4821" style="stop-color:#F7EDA3"/>
			<stop  offset="0.5021" style="stop-color:#F6EDA0"/>
			<stop  offset="1" style="stop-color:#CDB378"/>
		</linearGradient>
		<path fill="url(#SVGID_22_)" d="M619.902,22.617c-0.466-0.906-1.578-1.264-2.486-0.797l-0.2,0.103L582.584,4.098
			c-0.908-0.466-2.019-0.109-2.486,0.797c-0.467,0.906-0.11,2.019,0.797,2.486L613.182,24l-32.287,16.619
			c-0.907,0.467-1.264,1.58-0.797,2.486c0.327,0.636,0.974,1.001,1.643,1.001c0.284,0,0.573-0.066,0.843-0.205l34.632-17.826
			l0.2,0.103c0.271,0.139,0.559,0.205,0.843,0.205c0.67,0,1.316-0.365,1.643-1.002c0.229-0.445,0.258-0.939,0.122-1.382
			C620.16,23.556,620.131,23.062,619.902,22.617z"/>
		<g>
			
				<linearGradient id="SVGID_23_" gradientUnits="userSpaceOnUse" x1="397.0851" y1="-1176.3982" x2="438.5918" y2="-1076.1924" gradientTransform="matrix(0.1464 0.3536 0.3536 -0.1464 841.0341 -277.5584)">
				<stop  offset="0" style="stop-color:#FBEFBF"/>
				<stop  offset="0.2058" style="stop-color:#FBEFBC"/>
				<stop  offset="0.3532" style="stop-color:#F9EEB3"/>
				<stop  offset="0.4821" style="stop-color:#F7EDA3"/>
				<stop  offset="0.5021" style="stop-color:#F6EDA0"/>
				<stop  offset="1" style="stop-color:#CDB378"/>
			</linearGradient>
			<path fill="url(#SVGID_23_)" d="M485.091,44.758c-0.725,0-1.412-0.43-1.706-1.14c-0.39-0.942,0.057-2.022,0.999-2.412
				l37.819-15.665c0.946-0.391,2.022,0.058,2.412,0.999c0.39,0.942-0.057,2.022-0.999,2.412l-37.819,15.665
				C485.565,44.712,485.327,44.758,485.091,44.758z"/>
		</g>
		<g>
			
				<linearGradient id="SVGID_24_" gradientUnits="userSpaceOnUse" x1="-216.6295" y1="-903.451" x2="-158.8602" y2="-903.451" gradientTransform="matrix(0.3172 0.2828 0.2828 -0.3172 723.0808 -196.16)">
				<stop  offset="0" style="stop-color:#FBEFBF"/>
				<stop  offset="0.2058" style="stop-color:#FBEFBC"/>
				<stop  offset="0.3532" style="stop-color:#F9EEB3"/>
				<stop  offset="0.4821" style="stop-color:#F7EDA3"/>
				<stop  offset="0.5021" style="stop-color:#F6EDA0"/>
				<stop  offset="1" style="stop-color:#CDB378"/>
			</linearGradient>
			<path fill="url(#SVGID_24_)" d="M388.441,45.405c-0.782,0-1.507-0.5-1.758-1.284c-0.311-0.971,0.224-2.01,1.194-2.321
				l39.117-12.532c0.976-0.316,2.011,0.224,2.321,1.194c0.311,0.971-0.224,2.01-1.194,2.321l-39.117,12.532
				C388.817,45.376,388.627,45.405,388.441,45.405z"/>
		</g>
		<g>
			
				<linearGradient id="SVGID_25_" gradientUnits="userSpaceOnUse" x1="-424.3615" y1="-485.6009" x2="-354.794" y2="-485.6009" gradientTransform="matrix(0.4879 0.2121 0.2121 -0.4879 605.0706 -114.785)">
				<stop  offset="0" style="stop-color:#FBEFBF"/>
				<stop  offset="0.2058" style="stop-color:#FBEFBC"/>
				<stop  offset="0.3532" style="stop-color:#F9EEB3"/>
				<stop  offset="0.4821" style="stop-color:#F7EDA3"/>
				<stop  offset="0.5021" style="stop-color:#F6EDA0"/>
				<stop  offset="1" style="stop-color:#CDB378"/>
			</linearGradient>
			<path fill="url(#SVGID_25_)" d="M291.791,46.055c-0.839,0-1.598-0.575-1.797-1.428c-0.231-0.993,0.387-1.986,1.38-2.217
				l40.415-9.398c0.99-0.228,1.986,0.387,2.217,1.38c0.231,0.993-0.387,1.986-1.38,2.217l-40.415,9.398
				C292.07,46.039,291.929,46.055,291.791,46.055z"/>
		</g>
		<g>
			
				<linearGradient id="SVGID_26_" gradientUnits="userSpaceOnUse" x1="-402.0571" y1="-193.5238" x2="-337.9857" y2="-193.5238" gradientTransform="matrix(0.6586 0.1414 0.1414 -0.6586 487.0604 -33.41)">
				<stop  offset="0" style="stop-color:#FBEFBF"/>
				<stop  offset="0.2058" style="stop-color:#FBEFBC"/>
				<stop  offset="0.3532" style="stop-color:#F9EEB3"/>
				<stop  offset="0.4821" style="stop-color:#F7EDA3"/>
				<stop  offset="0.5021" style="stop-color:#F6EDA0"/>
				<stop  offset="1" style="stop-color:#CDB378"/>
			</linearGradient>
			<path fill="url(#SVGID_26_)" d="M195.142,46.703c-0.898,0-1.686-0.656-1.823-1.572c-0.151-1.008,0.543-1.948,1.551-2.099
				l41.712-6.266c0.999-0.155,1.948,0.542,2.099,1.551c0.151,1.008-0.543,1.948-1.551,2.099l-41.712,6.266
				C195.325,46.697,195.233,46.703,195.142,46.703z"/>
		</g>
		<g>
			
				<linearGradient id="SVGID_27_" gradientUnits="userSpaceOnUse" x1="-326.3616" y1="-20.599" x2="-270.7553" y2="-20.599" gradientTransform="matrix(0.8293 0.0707 0.0707 -0.8293 369.0502 47.965)">
				<stop  offset="0" style="stop-color:#FBEFBF"/>
				<stop  offset="0.2058" style="stop-color:#FBEFBC"/>
				<stop  offset="0.3532" style="stop-color:#F9EEB3"/>
				<stop  offset="0.4821" style="stop-color:#F7EDA3"/>
				<stop  offset="0.5021" style="stop-color:#F6EDA0"/>
				<stop  offset="1" style="stop-color:#CDB378"/>
			</linearGradient>
			<path fill="url(#SVGID_27_)" d="M98.493,47.351c-0.959,0-1.769-0.741-1.84-1.712c-0.074-1.017,0.69-1.901,1.707-1.976
				l43.01-3.133c1.029-0.059,1.901,0.691,1.976,1.707c0.074,1.017-0.691,1.901-1.707,1.976l-43.01,3.133
				C98.584,47.349,98.538,47.351,98.493,47.351z"/>
		</g>
		<g>
			
				<linearGradient id="SVGID_28_" gradientUnits="userSpaceOnUse" x1="-251.04" y1="83.186" x2="-203.04" y2="83.186" gradientTransform="matrix(1 0 0 -1 251.04 129.34)">
				<stop  offset="0" style="stop-color:#FBEFBF"/>
				<stop  offset="0.2058" style="stop-color:#FBEFBC"/>
				<stop  offset="0.3532" style="stop-color:#F9EEB3"/>
				<stop  offset="0.4821" style="stop-color:#F7EDA3"/>
				<stop  offset="0.5021" style="stop-color:#F6EDA0"/>
				<stop  offset="1" style="stop-color:#CDB378"/>
			</linearGradient>
			<path fill="url(#SVGID_28_)" d="M46.154,48H1.846C0.827,48,0,47.173,0,46.154s0.827-1.846,1.846-1.846h44.308
				c1.02,0,1.846,0.827,1.846,1.846S47.173,48,46.154,48z"/>
		</g>
	</g>
</g>
</svg>
